#!OML:ASF F:\VICON\USERDATA\INSTALL\rory3\rory3.ASF
:FULLY-SPECIFIED
:DEGREES
422
root 17.5186 18.4137 12.8189 192.03 -80.1067 171.52
lowerback 12.3986 -2.69303 3.31791
upperback 1.43081 -3.06867 8.0451
thorax -5.16701 -1.67389 7.22648
lowerneck 4.59979 -15.6 -9.76709
upperneck 34.2305 -33.3948 13.1767
head 15.7037 -15.5983 2.07125
rclavicle -4.13472e-014 5.08889e-014
rhumerus -18.7705 -9.57656 -79.4172
rradius 39.6619
rwrist 3.61704
rhand -16.5152 8.45295
rfingers 7.12502
rthumb 9.70313 -21.3035
lclavicle -4.13472e-014 5.08889e-014
lhumerus -34.6423 6.04004 80.3218
lradius 25.7412
lwrist -10.1197
lhand -14.0277 23.4351
lfingers 7.12502
lthumb 12.1024 53.0651
rfemur -4.6669 5.16735 19.8653
rtibia 25.8242
rfoot -10.8174 3.15566
rtoes 1.81093
lfemur -20.3099 0.152385 -19.1057
ltibia 21.8643
lfoot -2.52539 1.10421
ltoes -25.596
423
root 17.6429 18.4134 12.795 193.077 -80.3761 170.447
lowerback 12.2931 -2.76488 3.13876
upperback 1.46075 -3.1966 7.99579
thorax -5.05745 -1.73344 7.28447
lowerneck 4.27894 -15.2996 -9.7569
upperneck 34.4445 -32.9434 13.1999
head 15.7997 -15.3813 2.12764
rclavicle -4.77083e-015 9.54166e-014
rhumerus -19.0714 -9.3877 -79.2002
rradius 39.6014
rwrist 3.73679
rhand -16.1205 8.3402
rfingers 7.12502
rthumb 10.0839 -21.3982
lclavicle -4.77083e-015 9.54166e-014
lhumerus -34.2673 4.7134 81.0949
lradius 26.6898
lwrist -9.95065
lhand -14.5362 24.0982
lfingers 7.12502
lthumb 11.6121 53.7564
rfemur -5.10421 4.84101 19.8928
rtibia 25.9547
rfoot -10.8903 2.89611
rtoes 1.78396
lfemur -20.3616 -0.0210823 -19.1491
ltibia 22.8611
lfoot -3.19513 1.63386
ltoes -25.874
424
root 17.7613 18.4139 12.7712 193.901 -80.5376 169.456
lowerback 12.3142 -2.87432 2.94857
upperback 1.49585 -3.3677 7.93598
thorax -5.00767 -1.81408 7.35408
lowerneck 3.99202 -14.9357 -9.84888
upperneck 34.7674 -32.3835 13.0931
head 15.9106 -15.1452 2.17294
rclavicle -1.59028e-014 -2.8625e-014
rhumerus -19.4826 -9.00346 -79.0224
rradius 39.5473
rwrist 3.62114
rhand -15.6855 8.21041
rfingers 7.12502
rthumb 10.5035 -21.5072
lclavicle -1.59028e-014 -2.8625e-014
lhumerus -33.9347 4.29282 81.2873
lradius 27.5905
lwrist -8.79858
lhand -15.6109 24.6365
lfingers 7.12502
lthumb 10.5755 54.3504
rfemur -5.37629 4.70999 19.925
rtibia 26.0544
rfoot -10.9023 2.64353
rtoes 1.88287
lfemur -20.2624 -0.0288235 -19.2344
ltibia 24.0819
lfoot -3.72353 2.18635
ltoes -26.8486
425
root 17.8776 18.4071 12.7491 193.913 -80.6676 169.213
lowerback 12.4067 -2.9244 2.97464
upperback 1.55408 -3.42817 7.7921
thorax -5.00137 -1.84295 7.19417
lowerneck 3.6694 -14.6542 -9.63656
upperneck 35.075 -31.9364 12.9557
head 15.9762 -14.9236 2.14862
rclavicle -7.15625e-015 -3.18055e-015
rhumerus -20.0044 -9.07932 -78.875
rradius 39.4632
rwrist 3.74197
rhand -15.2209 7.9899
rfingers 7.12502
rthumb 10.9517 -21.7045
lclavicle -7.15625e-015 -3.18055e-015
lhumerus -33.674 3.09262 81.7678
lradius 28.6688
lwrist -8.04118
lhand -13.3964 22.4844
lfingers 7.12502
lthumb 12.7111 52.0775
rfemur -5.55068 4.53782 20.0704
rtibia 26.1308
rfoot -10.9254 2.55536
rtoes 2.23847
lfemur -20.0736 0.0830676 -19.2294
ltibia 25.4846
lfoot -3.89862 2.87887
ltoes -27.1182
426
root 17.9936 18.405 12.7253 193.66 -80.8688 169.312
lowerback 12.3952 -2.92646 3.05778
upperback 1.60217 -3.42373 7.66964
thorax -4.95679 -1.84128 7.00706
lowerneck 3.42723 -14.3981 -9.41454
upperneck 35.2477 -31.572 13.0134
head 16.0238 -14.7286 2.18976
rclavicle -1.11319e-014 -5.40694e-014
rhumerus -20.5262 -9.24847 -78.6351
rradius 39.2689
rwrist 3.98129
rhand -15.4991 8.00942
rfingers 7.12502
rthumb 10.6833 -21.699
lclavicle -1.11319e-014 -5.40694e-014
lhumerus -33.2749 2.20327 82.1516
lradius 29.677
lwrist -7.75129
lhand -15.0858 24.6263
lfingers 7.12502
lthumb 11.082 54.3137
rfemur -5.79705 4.31213 20.3009
rtibia 26.2282
rfoot -11.1071 2.31921
rtoes 2.78467
lfemur -19.9735 0.134319 -19.1231
ltibia 27.0387
lfoot -3.68427 3.65357
ltoes -22.5707
427
root 18.1087 18.4057 12.6971 193.697 -81.1217 169.255
lowerback 12.214 -2.91351 3.01483
upperback 1.59213 -3.42229 7.64813
thorax -4.86613 -1.83935 6.993
lowerneck 3.11329 -14.1477 -9.38309
upperneck 35.5021 -31.1654 12.945
head 16.1245 -14.5341 2.20288
rclavicle -5.48646e-014 -1.27222e-014
rhumerus -21.0644 -9.16214 -78.3145
rradius 39.0243
rwrist 3.46914
rhand -16.9426 8.36981
rfingers 7.12502
rthumb 9.29071 -21.4055
lclavicle -5.48646e-014 -1.27222e-014
lhumerus -32.8496 1.64222 82.4854
lradius 30.629
lwrist -7.40092
lhand -14.9086 24.8905
lfingers 7.12502
lthumb 11.2529 54.5687
rfemur -6.20362 4.19837 20.5442
rtibia 26.3558
rfoot -11.2195 1.82957
rtoes 3.10799
lfemur -20.0534 0.365111 -19.0708
ltibia 28.7097
lfoot -4.35314 3.53866
ltoes -23.5118
428
root 18.2248 18.4053 12.6687 194.387 -81.3088 168.657
lowerback 11.934 -2.91447 2.90927
upperback 1.50355 -3.44325 7.55886
thorax -4.80264 -1.84313 6.94064
lowerneck 2.7746 -13.8522 -9.34606
upperneck 35.8882 -30.7202 12.7965
head 16.2742 -14.3286 2.18752
rclavicle 3.97569e-015 7.95139e-014
rhumerus -21.8005 -9.37363 -78.0138
rradius 38.8946
rwrist 3.47453
rhand -17.6634 8.62617
rfingers 7.12502
rthumb 8.59519 -21.1789
lclavicle 3.97569e-015 7.95139e-014
lhumerus -32.5037 1.02074 82.7458
lradius 31.4177
lwrist -7.10582
lhand -14.6804 24.3701
lfingers 7.12502
lthumb 11.473 54.0362
rfemur -6.79304 3.79563 20.649
rtibia 26.5233
rfoot -11.2344 1.75505
rtoes 2.46875
lfemur -20.2596 0.735412 -19.1617
ltibia 30.4335
lfoot -4.72873 3.35728
ltoes -24.5795
429
root 18.338 18.4035 12.6475 194.411 -81.3155 168.644
lowerback 11.7039 -2.96348 2.84782
upperback 1.46518 -3.5265 7.47649
thorax -4.70944 -1.88133 6.88133
lowerneck 2.65288 -13.4232 -9.41585
upperneck 36.0735 -30.0808 12.859
head 16.3107 -14.0714 2.33533
rclavicle -5.00937e-014 3.18055e-014
rhumerus -22.506 -9.59215 -77.72
rradius 38.7495
rwrist 4.14758
rhand -17.2298 8.61855
rfingers 7.12502
rthumb 9.01361 -21.1689
lclavicle -5.00937e-014 3.18055e-014
lhumerus -32.1949 0.754979 82.9427
lradius 32.152
lwrist -6.85435
lhand -15.0517 24.1186
lfingers 7.12502
lthumb 11.1149 53.8042
rfemur -7.29993 3.54235 20.7678
rtibia 26.7058
rfoot -11.2295 1.8422
rtoes 2.1843
lfemur -20.3156 1.18046 -19.2022
ltibia 32.2118
lfoot -4.95429 3.14851
ltoes -24.7741
430
root 18.4509 18.3961 12.6292 194.485 -81.4128 168.311
lowerback 11.7297 -3.07094 2.69605
upperback 1.53186 -3.69415 7.45843
thorax -4.62893 -1.96414 6.9712
lowerneck 2.52276 -13.0091 -9.56727
upperneck 36.1523 -29.3405 12.8518
head 16.2649 -13.7853 2.48955
rclavicle -3.18055e-014 4.45278e-014
rhumerus -23.0082 -9.42371 -77.4001
rradius 38.5807
rwrist 3.83758
rhand -16.3881 8.32839
rfingers 7.12502
rthumb 9.82572 -21.4224
lclavicle -3.18055e-014 4.45278e-014
lhumerus -31.8878 0.60574 83.2805
lradius 33.1166
lwrist -6.5505
lhand -15.7008 24.5899
lfingers 7.12502
lthumb 10.4888 54.3082
rfemur -7.46487 3.66212 20.8935
rtibia 26.8389
rfoot -11.1577 1.58208
rtoes 2.6062
lfemur -20.0837 1.55351 -19.2697
ltibia 34.0418
lfoot -5.32151 2.73057
ltoes -24.2966
431
root 18.5677 18.3867 12.6127 194.016 -81.644 168.414
lowerback 12.0045 -3.12136 2.76906
upperback 1.54794 -3.73377 7.37231
thorax -4.77081 -1.9821 6.8642
lowerneck 2.45538 -12.6367 -9.71458
upperneck 36.2068 -28.78 13.049
head 16.2793 -13.5617 2.69238
rclavicle -8.74653e-015 1.27222e-014
rhumerus -23.6762 -9.3744 -77.0526
rradius 38.3088
rwrist 3.32074
rhand -15.8274 7.96892
rfingers 7.12502
rthumb 10.3666 -21.7556
lclavicle -8.74653e-015 1.27222e-014
lhumerus -31.7562 -0.233434 83.6684
lradius 34.432
lwrist -6.01121
lhand -16.5218 25.6423
lfingers 7.12502
lthumb 9.69674 55.3991
rfemur -7.46948 3.66061 21.1266
rtibia 26.8556
rfoot -11.0051 1.28339
rtoes 4.11186
lfemur -19.7548 1.68591 -19.2239
ltibia 35.9037
lfoot -5.76282 2.34222
ltoes -23.5079
432
root 18.6828 18.3866 12.596 193.348 -81.7748 168.869
lowerback 12.1252 -3.03755 2.94341
upperback 1.5422 -3.58794 7.22236
thorax -4.87813 -1.90842 6.58923
lowerneck 2.24511 -12.358 -9.82181
upperneck 36.3028 -28.4522 13.3701
head 16.417 -13.4025 2.87587
rclavicle -7.196e-014 7.31528e-014
rhumerus -24.4527 -9.83551 -76.6187
rradius 37.8636
rwrist 3.65453
rhand -16.0962 7.94849
rfingers 7.12502
rthumb 10.1074 -21.7888
lclavicle -7.196e-014 7.31528e-014
lhumerus -31.5121 -1.53022 84.0355
lradius 35.6451
lwrist -5.32591
lhand -17.2624 25.9365
lfingers 7.12502
lthumb 8.98213 55.7253
rfemur -7.68839 3.58413 21.3574
rtibia 26.9542
rfoot -10.879 1.16613
rtoes 6.66646
lfemur -19.4932 1.92155 -19.1421
ltibia 37.6603
lfoot -6.06537 1.85044
ltoes -21.8383
